<?xml version="1.0" encoding="UTF-8"?>
<svg id="Livello_1" xmlns="http://www.w3.org/2000/svg" version="1.1" viewBox="0 0 967.64 604.63">
  <!-- Generator: Adobe Illustrator 30.5.1, SVG Export Plug-In . SVG Version: 2.1.4 Build 3)  -->
  <defs>
    <style>
      .st0 {
        fill: #fefefd;
      }

      .st1 {
        fill: #fff;
      }
    </style>
  </defs>
  <polygon class="st1" points="906.48 550.55 899.73 550.51 901 543.89 907.82 543.9 906.48 550.55"/>
  <polygon class="st1" points="459.44 550.5 452.63 550.51 453.87 543.96 460.74 543.92 459.44 550.5"/>
  <path class="st1" d="M622.74,0c-88.92,0-161.01,72.09-161.01,161.01s72.09,161.01,161.01,161.01,161.01-72.09,161.01-161.01S711.66,0,622.74,0ZM494.37,157.68c-.18-19.08,6.11-41.79,15.45-58.39,6.62-11.77,14.73-22.22,24.35-31.67,12.31-11.38,25.95-20.62,41.64-26.77,26.82-10.52,56.28-11.8,84.37-3.53-13.61,2.54-27.02,5.96-40.11,11.19-28.89,11.55-54.48,28.99-75.72,51.74-21.77,23.45-38.35,52.18-47.73,82.75h0c-2.03-8.84-2.35-16.75-2.25-25.32ZM573.36,185.58l-23.07-3.72c-6.5-1.05-12.86-.42-19.62-.05l11.41-24.34c6.43-11.44,13.71-21.97,22.26-31.84l3.25-3.22c-4.37,20.51-2.63,43.29,5.77,63.17ZM525.72,245.1c-7.85-8.88-14-18.48-19.34-29.35,37.75-5.62,73.45.27,106.39,18.94,20.86,11.71,39,27.69,52.96,47.38-51.08,18.34-104.89,2.8-140.01-36.97ZM694.57,267.54c-7.17-10.91-14.84-20.74-24.21-29.6h0s-8.21-7.76-8.21-7.76c-16.03-15.16-34.69-22.22-45.69-34.83-6.11-7.01-10.91-14.7-14.15-23.4-10.05-26.95-4.26-57.18,15-78.37,11.5-12.65,26.21-20.89,43.23-23.73,21.74-3.63,43.98,2.36,60.91,16.62,23.58,19.86,31.64,53.72,29.56,83.71-2.92,39.62-23.49,74.74-56.44,97.36Z"/>
  <circle class="st1" cx="670.12" cy="129.39" r="17.37"/>
  <rect class="st1" x="463.53" y="346.1" width="30.67" height="28.72"/>
  <g id="scritta">
    <path class="st1" d="M280.94,427.42c-4.71-11.27-18.37-12.97-27.12-7.88-11.62,6.76-14.5,20.92-14.72,34.12l.03,57.64h-30.27v-115.32h28.08l.33,15.58c8.14-11.55,20.52-17.68,34.5-17.97,9.14-.19,17.91,1.14,25.71,6.02,13.3,8.32,16.15,24.64,16.5,39.9l-.06,71.9-30.1-.06-.02-67.83c-.21-5.68-.72-11-2.85-16.1h-.01Z"/>
    <path class="st1" d="M580.68,418.37c-5.15-2.05-11.03-1.9-16,.02-14.56,5.64-17.14,23.67-17.35,38.38l-.03,54.55-29.8-.04-.04-115.29h27.81l.47,16.07c8.38-12.11,21.13-18.47,35.6-18.44,17.26.04,31.02,5.5,37.21,22.27,2.76,7.49,3.45,14.99,3.79,23.14l.06,72.25h-29.71l-.04-65.9c-.37-10.2-2.17-23.1-11.99-27.02h.02Z"/>
    <rect class="st1" x="748.55" y="412.34" width="167.91" height="30.22" transform="translate(404.9875 1259.9221) rotate(-89.9955)"/>
    <rect class="st1" x="695.61" y="412.41" width="167.91" height="30.03" transform="translate(352.1054 1206.9764) rotate(-89.9973)"/>
    <path class="st1" d="M30.07,511.38l-30.07.07v-115.45l26.91-.04.36,23.35c2.73-6.22,5.7-12.12,10.63-16.91,3.68-3.61,7.84-6.17,12.75-7.82,5.73-1.48,11.65-1.54,17.6.03l-.41,29.84c-11.79-4.79-25.48-2.5-32.12,8.94-3.9,7.61-5.35,15.57-5.56,24.21l-.1,53.77h.01Z"/>
    <rect class="st1" x="421.42" y="438.69" width="115.37" height="29.95" transform="translate(25.27 932.61) rotate(-89.98)"/>
    <path class="st1" d="M411.61,343.48l-.07,64.63c-8.1-9.1-18.58-13.89-30.37-14.49-9.34-.48-18.14.94-26.37,5.37-25.95,14.43-29.58,52.76-22.39,79.42,3.69,13.68,12.77,26.24,26,31.65,10.49,4.28,22.01,4.99,33.02,2.14,8.7-2.25,15.77-7.39,21.44-14.39l1.05,13.45h27.37v-167.74l-29.68-.04h0ZM399.52,485.47h.01c-8.43,6.56-20.49,5.91-28.44-.76-4.4-3.7-6.89-8.61-8.46-14.11-5.93-20.78-1.07-54.57,23.4-53.63,11.34.43,19.32,8.48,22.59,18.98,4.77,15.31,3.77,39.51-9.1,49.52Z"/>
    <path class="st1" d="M134.64,392.87c-33.62,0-60.87,27.25-60.87,60.87s27.25,60.87,60.87,60.87,60.87-27.25,60.87-60.87-27.25-60.87-60.87-60.87ZM135.95,490.07c-9.77.45-19.1-3.65-24.28-12.09-8.33-13.59-8.39-35.24,0-48.64,4.88-7.8,12.82-12.2,21.89-12.46,20.29-.59,29.82,17.08,29.97,36.23.15,18.56-7.84,36.04-27.58,36.96h0Z"/>
    <path class="st1" d="M706.35,491.53c-20.41,1.78-36.33-7.48-39.21-28.17h79.39l-.43-18.33c-.83-8.34-2.57-16.23-5.79-23.92-9.91-22.55-32.37-29.92-55.92-26.99-18.62,2.33-33.99,14.33-40.85,31.95-6.79,17.42-6.79,37.28-.16,54.85,5.03,13.32,15.58,22.69,28.51,28.19,11.97,4.54,24.59,5.58,37.4,4.11,10.08-1.24,19.61-3.49,28.89-7.96v-26.2c-9.8,6.74-20.02,11.07-31.83,12.47h0ZM682.06,417.61c4.76-2.07,9.81-2.65,14.99-1.99,14.37,1.32,19.89,12.96,21.14,27.09h0l-50.78.03c.99-10.66,4.99-20.15,14.65-25.13h0Z"/>
    <path class="st1" d="M967.63,510.73c-1.76-13.92-2.32-27.43-2.37-41.46l-.1-29.79c-.02-7.12-.9-13.85-2.99-20.54-3.3-10.6-11.17-18.29-21.67-21.79-19.34-6.44-45.64-3.77-64.03,5.32l.74,25.65,10.01-6.08c10.88-5.71,23.36-7.95,35.48-5.71,11.47,2.12,15.18,12.39,14.93,23.27l-22.5.15c-8.87.06-17.38,1.52-25.73,4.53-18.18,6.55-28.03,21.33-24.89,40.9v.03c1.7,10.67,7.98,19,17.53,23.75,13.05,6.48,28.65,6.46,41.81.1,6.66-3.22,11.41-8.28,15.74-14.16l1.28,16.56,26.22-.02c.41.04.61-.13.54-.71h0ZM937.53,464.57c-.19,5.79-1.69,11.47-5.29,16.54h-.01c-6.24,8.77-17.48,12.66-27.65,10.14-4.57-1.13-8.52-3.97-10.37-8.19-3.62-8.24.57-17.32,8.58-21.01,4.24-1.96,8.55-3.17,13.24-3.33l21.71-.73-.21,6.58Z"/>
    <path class="st1" d="M640.83,590.29l4.29-21.4c.5-2.48-.43-5.39-2.81-6.35-6.2-2.5-12.22,2.92-13.82,10.09l-3.93,17.67h-6.34l10.47-48.24,6.14-.05-3.81,18.88c4.72-4.05,10.84-5.52,16.16-2.68,3.62,1.94,4.57,6.16,4.3,10.14l-4.55,22.05-6.11-.11h.01Z"/>
    <polygon class="st1" points="874.52 572.04 887.79 590.3 879.76 590.3 868.04 573.9 864.48 590.31 858.13 590.3 868.44 542.08 874.73 542.09 868.82 569.97 883.94 557.44 892.56 557.51 874.52 572.04"/>
    <path class="st1" d="M562.27,596.82c-3.62,6.46-9.2,9.03-15.98,7.26l.97-5.03c5.87,1.68,9.05-2.03,11.44-7.84l-5.79-33.82,6.88-.06,3.58,26.59,14.39-26.49h6.58l-22.07,39.39h0Z"/>
    <path class="st1" d="M472.63,565.35c-2.32,2.63-3.46,5.62-4.16,8.85l-3.51,16.11h-6.33l6.87-32.87,5.79-.04c-.06,1.1-.76,2.01-.17,3.53,4.36-4.05,11.01-5.59,16.5-2.81,3.58,1.82,4.97,6.42,4.22,10.28l-4.28,21.92-6.28.02,4.29-21.08c.48-2.35.06-5.27-2.23-6.46-3.55-1.86-8.01-.52-10.72,2.56h.01Z"/>
    <polygon class="st1" points="267.53 590.16 260.35 590.42 254.79 577.65 244.29 590.32 236.36 590.32 251.75 573.01 243.98 557.34 251.36 557.41 256.31 568.63 265.85 557.42 273.36 557.37 259.41 573.16 267.53 590.16"/>
    <path class="st1" d="M777.56,562.37l-6.07,27.92-6.12.04,5.85-27.88-7.44-.16.91-4.78,7.57-.22,2.66-9.22c1.63-5.66,9.21-7.93,15.76-5.85l-1.38,5.15c-2.83-1.05-6.12-1.14-7.85,1.36s-2.13,5.43-2.76,8.63l8.25.07-.9,4.88-8.49.07h.01Z"/>
    <path class="st1" d="M291.46,585.08l-.74,5.17c-2.93.99-6.03,1.11-8.95.34-3.8-1-5.73-4.28-4.95-8.1l4.08-19.99-6.93-.07,1.16-5.11,6.92-.05,1.7-7.64,6.3-1.97-1.87,9.76h8.36l-.73,4.87-8.7.04-3.78,18.68c-.39,1.93.5,4.14,2.32,4.73s3.46.02,5.82-.66h0Z"/>
    <path class="st1" d="M956.09,589.84c-5.2,2.03-10.74,1.42-15.78-.6l1.28-5.58c5.4,3.01,12.56,3.2,13.87-1,.66-2.13-.03-4.09-1.81-5.3l-5.8-3.93c-2.94-1.99-4.03-5.43-3.09-8.9,2.22-8.24,12.13-9,20.31-6.43l-1.42,5.27c-5.08-2.07-11.29-2.24-12.52,1.52-.53,1.61.12,3.19,1.58,4.17l5.55,3.7c3.2,2.13,4.6,5.51,4.08,9.19-.47,3.31-2.52,6.41-6.25,7.87v.02h0Z"/>
    <path class="st1" d="M615.55,582.79c-1.85,8.71-13.26,9.95-21.93,6.53l1.32-5.53c5.42,2.89,12.71,3.09,13.97-1.35.48-1.68.08-3.57-1.41-4.62l-4.9-3.43c-1.63-1.14-3.49-2.51-4.19-4.46-2.1-5.84,1.83-11.66,7.86-12.73,4.12-.73,8.15-.38,12.1.9l-1.49,5.35c-5.03-2.17-11.11-2.45-12.42,1.47-.53,1.57.13,3.18,1.59,4.14l6.46,4.26c3.1,2.04,3.82,5.8,3.04,9.46h0Z"/>
    <path class="st1" d="M743.65,582.97c-1.77,8.42-13.54,9.83-22.06,6.25l1.28-5.63c5.44,3.13,12.79,3.29,14.14-1.04.57-1.84.14-3.77-1.45-4.87l-5.18-3.61c-1.73-1.2-3.39-2.6-4.01-4.72-1.56-5.26,1.69-10.61,7.06-11.92,4.31-1.05,8.73-.7,12.99.64l-1.45,5.24c-5.29-2.19-11.64-1.98-12.46,1.9-.35,1.66.41,3.04,1.81,3.99l6.12,4.12c3.17,2.14,4.03,5.75,3.21,9.65h0Z"/>
    <path class="st1" d="M826.92,590.23c-2.17.38-4.17.2-6.37.09l6.75-32.76,5.58.06c-.13,1.44-.8,2.47-.42,4.14,3.03-4.29,7.9-5.93,12.93-4.41l-1.04,5.54c-6.98-2.74-12.68,4.32-14.11,11.25l-3.31,16.08h-.01Z"/>
    <path class="st1" d="M391.99,590.29l-6.35.04,7.03-32.8,5.61.09c-.17,1.27-.83,2.16-.36,3.7,3.16-4.07,8.18-5.44,12.84-3.92l-1.15,5.49c-8.16-2.69-12.96,4.88-14.65,13.04l-2.97,14.36Z"/>
    <path class="st1" d="M301.16,590.34l-6.19-.05,6.75-32.63,5.63-.04c-.12,1.32-.68,2.2-.25,3.71,3.24-3.87,7.98-5.48,12.89-3.98l-1.07,5.48c-7.77-2.55-12.98,4.52-14.6,12.3l-3.17,15.22h.01Z"/>
    <polygon class="st1" points="450.86 590.3 444.46 590.33 451.46 557.38 457.78 557.44 450.86 590.3"/>
    <polygon class="st1" points="897.83 590.25 891.38 590.33 898.48 557.42 904.82 557.43 897.83 590.25"/>
    <g>
      <path class="st1" d="M420.92,591.11h-.01.02,0Z"/>
      <path class="st1" d="M440.49,542.08l-4.21,19.34c-4.97-6.8-16.69-5.89-21.77.82-4.53,5.87-6.39,13.56-4.52,20.75,1.32,5.06,5.53,8.15,10.92,8.12,4.27-.03,7.66-1.42,10.43-4.38.34,1.45-.16,2.26-.34,3.63l5.76-.08,9.87-48.2h-6.14ZM429.76,582.75c-2.59,3.08-6.94,4.12-10.55,2.01-4.88-2.84-4.39-12.9.55-19.27,2.47-3.18,6.7-4.47,10.4-2.7,5.75,2.76,4.76,13.83-.4,19.96Z"/>
    </g>
    <path class="st1" d="M938.26,542.05l-4.18,19.43c-4.86-6.48-15.09-5.87-20.5-.68-5.5,5.89-7.79,14.19-5.91,22.03,1.28,5.31,5.75,8.41,11.07,8.29,3.97-.09,7.58-1.21,10.07-4.28.56,1.86-.19,2.59-.11,3.56l5.67-.08,4.24-19.6,5.85-28.69-6.2.02ZM928,581.99c-2.31,3.18-6.29,4.82-10.26,3.25h0c-5.8-2.3-5.43-13.66.12-20.17,2.98-3.5,8.27-4.3,11.66-1.13,4.13,3.87,2.48,12.55-1.51,18.05h0Z"/>
    <path class="st1" d="M383.47,569.84c-.25-7.39-5.76-12.73-13.1-12.96-4.13-.14-8.18.34-11.63,2.82-6.72,4.84-9.86,13.42-7.98,21.48,1.25,5.35,5.16,8.87,10.81,9.65s11.5-.36,15.78-4.52h0c4.56-4.42,6.32-10.41,6.12-16.47h0ZM371.69,583.28c-2.83,2.74-7.08,3.56-10.75,1.62-5.34-2.83-4.94-11.9-1.14-17.87,2.42-3.8,6.88-5.82,11.32-4.75,3.26.78,5.36,3.71,5.68,7.07.5,5.2-1.38,10.33-5.11,13.93Z"/>
    <path class="st1" d="M340.37,557.89c-5.4-1.92-11.3-1.1-16.54.98-.52,2.03-.64,3.79-.59,5.66,5.45-2.9,13.79-3.91,15.92-.15.98,1.71,1.37,4.44.11,5.65-9.34-.45-20.36.33-22.51,9.52-1.33,5.69,1.87,10.6,7.85,11.37h-.02c4.63.61,8.77-.51,11.89-3.9.69,1.43.29,2.22.15,3.34l5.37-.05,3.92-21.39c.84-4.59-1.06-9.44-5.55-11.03h0ZM337.82,578.53c-1.23,5.12-6.09,8.03-11.08,7.13-1.44-.26-2.61-1.17-3.11-2.12-.72-1.37-.76-2.97-.03-4.43,1.02-2.03,3.14-3.67,5.4-3.83l9.76-.69-.95,3.93h.01,0Z"/>
    <path class="st1" d="M515.88,557.19c-4.99-.71-9.98-.16-14.4,1.89l-.34,5.49c5.71-2.99,14.21-4.05,16.21.32.65,1.42.95,4.34-.24,5.02l-9.62.28c-3.98.12-7.73,1.53-10.59,4.59s-3.69,8.08-1.57,11.94h0c3.19,5.82,14.45,5.84,19.01-.01.59,1.46.15,2.35-.08,3.67l5.48-.07,4.13-21.6c1.09-5.67-2.27-10.7-7.98-11.52h-.01ZM516.59,574.59h0c-.96,7.31-5.97,12.49-12.6,11.01-2.93-.65-4.16-3.98-2.74-6.52,1.32-2.35,3.66-3.83,6.31-3.98l9.03-.51h0s0,0,0,0Z"/>
    <path class="st1" d="M817.98,567.54c-1.27-6.77-6.81-10.67-13.51-10.71-5.48-.03-10.34,1.66-13.99,5.87-4.21,4.87-6.1,11.35-4.92,17.76.99,5.43,4.88,9.24,10.46,10.26,8.86,1.62,17.2-2.59,20.54-10.74,1.64-3.99,2.2-8.26,1.42-12.44ZM800.81,585.93c-4.39.46-7.96-2.22-8.65-6.3-1.34-7.94,2.83-17.24,11.33-17.64,3.97-.18,7.23,2.39,7.94,6.28,1.4,7.6-2.87,16.84-10.62,17.66Z"/>
    <path class="st1" d="M687.16,565.56c-2.72-9.15-14.86-10.61-21.46-7.01-7.82,4.26-11.85,13.43-10.2,22.04.87,4.53,3.74,8.1,8.1,9.51,5.86,1.89,12.75,1.2,17.68-3.13h0c6.12-5.38,8.1-13.94,5.88-21.41h0ZM677.74,582.18c-1.91,2.43-4.44,3.73-7.54,3.85h0c-4.24.16-7.79-2.61-8.41-6.92-.66-4.56.67-9.15,3.34-12.88s6.9-5.23,11.12-3.89c6.97,2.22,6.67,13.24,1.49,19.84h0Z"/>
    <path class="st1" d="M237.81,575.39c1.6-6.86.95-15.25-5.39-17.46-4.82-1.68-10.72-1.61-15.11,1.43-7.59,5.25-10.6,15.3-7.86,23.9,2.78,8.72,14.75,9.07,23.35,6.22l.95-5.97c-4.51,2.03-9.04,3.19-13.75,1.71-4.3-1.35-5.86-5.9-5.11-9.83h22.92ZM225.32,561.85c2.96-.24,5.73.93,6.67,3.77.5,1.51.5,3.07.22,5.02l-16.4-.08c1.32-4.85,4.78-8.33,9.51-8.71Z"/>
    <path class="st1" d="M721.1,575.39c.61-3.22.79-6.31.35-9.48-.76-5.42-4.88-8.87-10.34-9-3.77-.09-7.7.12-10.86,2.49-6.85,5.15-9.78,13.92-8.2,22.31,1.88,10,14.66,10.99,23.95,7.68l.85-5.89c-3.81,1.87-7.42,2.64-11.33,2.31h0c-5.38-.46-8.64-5.45-7.33-10.49l22.92.07h0ZM704.17,563.25c2.72-1.72,6.37-2,9.01-.28s2.72,5.1,2.01,7.62l-16.19-.04c.72-2.92,2.45-5.58,5.17-7.3Z"/>
    <path class="st1" d="M533.61,590.32h-6.23l6.9-32.78,5.64.12c-.63.9-.49,2.4.5,2.65,3.08-3.02,7.6-4.49,11.98-2.86l-1.04,5.27c-3.77-.92-7.44-.21-9.95,2.84-1.91,2.32-3.59,4.96-4.23,7.97l-3.56,16.79h-.01Z"/>
    <rect class="st0" x="539.42" y="560.61" width=".35" height=".35" transform="translate(-238.49 545.81) rotate(-45)"/>
  </g>
</svg>